<mxfile host="Electron" agent="Mozilla/5.0 (Windows NT 10.0; Win64; x64) AppleWebKit/537.36 (KHTML, like Gecko) draw.io/27.0.9 Chrome/134.0.6998.205 Electron/35.4.0 Safari/537.36" version="27.0.9" pages="3">
  <diagram name="mcd" id="JYa1z4Gjsz-vNSRK5BjZ">
    <mxGraphModel dx="1863" dy="606" grid="1" gridSize="10" guides="1" tooltips="1" connect="1" arrows="1" fold="1" page="1" pageScale="1" pageWidth="827" pageHeight="1169" math="0" shadow="0">
      <root>
        <mxCell id="0" />
        <mxCell id="1" parent="0" />
        <mxCell id="J4wWDecNCUsRWOMbRsMd-63" style="edgeStyle=orthogonalEdgeStyle;shape=connector;rounded=0;orthogonalLoop=1;jettySize=auto;html=1;entryX=0;entryY=0.5;entryDx=0;entryDy=0;strokeColor=default;align=center;verticalAlign=middle;fontFamily=Helvetica;fontSize=11;fontColor=default;labelBackgroundColor=default;startFill=0;endArrow=none;" edge="1" parent="1" source="J4wWDecNCUsRWOMbRsMd-1" target="J4wWDecNCUsRWOMbRsMd-58">
          <mxGeometry relative="1" as="geometry">
            <Array as="points">
              <mxPoint x="-180" y="140" />
              <mxPoint x="-180" y="700" />
            </Array>
          </mxGeometry>
        </mxCell>
        <mxCell id="J4wWDecNCUsRWOMbRsMd-65" value="0,n" style="edgeLabel;html=1;align=center;verticalAlign=middle;resizable=0;points=[];fontFamily=Helvetica;fontSize=11;fontColor=default;labelBackgroundColor=default;" vertex="1" connectable="0" parent="J4wWDecNCUsRWOMbRsMd-63">
          <mxGeometry x="-0.9444" y="1" relative="1" as="geometry">
            <mxPoint as="offset" />
          </mxGeometry>
        </mxCell>
        <mxCell id="J4wWDecNCUsRWOMbRsMd-1" value="&lt;b&gt;Utilisateur&lt;/b&gt;" style="swimlane;fontStyle=0;childLayout=stackLayout;horizontal=1;startSize=30;horizontalStack=0;resizeParent=1;resizeParentMax=0;resizeLast=0;collapsible=1;marginBottom=0;whiteSpace=wrap;html=1;" vertex="1" parent="1">
          <mxGeometry x="-120" y="80" width="140" height="220" as="geometry" />
        </mxCell>
        <mxCell id="J4wWDecNCUsRWOMbRsMd-2" value="&lt;b&gt;&lt;u&gt;numUtilisateur&lt;/u&gt;&lt;/b&gt;" style="text;strokeColor=none;fillColor=none;align=left;verticalAlign=middle;spacingLeft=4;spacingRight=4;overflow=hidden;points=[[0,0.5],[1,0.5]];portConstraint=eastwest;rotatable=0;whiteSpace=wrap;html=1;" vertex="1" parent="J4wWDecNCUsRWOMbRsMd-1">
          <mxGeometry y="30" width="140" height="30" as="geometry" />
        </mxCell>
        <mxCell id="J4wWDecNCUsRWOMbRsMd-4" value="&lt;span style=&quot;background-color: transparent; color: light-dark(rgb(0, 0, 0), rgb(255, 255, 255));&quot;&gt;NomUtilisateur&lt;/span&gt;&lt;br&gt;&lt;span style=&quot;background-color: transparent; color: light-dark(rgb(0, 0, 0), rgb(255, 255, 255));&quot;&gt;Prénom&lt;/span&gt;&lt;br&gt;&lt;span style=&quot;background-color: transparent; color: light-dark(rgb(0, 0, 0), rgb(255, 255, 255));&quot;&gt;Pseudo&lt;/span&gt;&lt;br&gt;&lt;span style=&quot;background-color: transparent; color: light-dark(rgb(0, 0, 0), rgb(255, 255, 255));&quot;&gt;Mot de passe&lt;/span&gt;&lt;br&gt;&lt;span style=&quot;background-color: transparent; color: light-dark(rgb(0, 0, 0), rgb(255, 255, 255));&quot;&gt;Rôle&lt;/span&gt;&lt;br&gt;&lt;span style=&quot;background-color: transparent; color: light-dark(rgb(0, 0, 0), rgb(255, 255, 255));&quot;&gt;Adresse mail&lt;/span&gt;&lt;br&gt;&lt;span style=&quot;background-color: transparent; color: light-dark(rgb(0, 0, 0), rgb(255, 255, 255));&quot;&gt;Date de naissance&lt;/span&gt;&lt;br&gt;&lt;span style=&quot;background-color: transparent; color: light-dark(rgb(0, 0, 0), rgb(255, 255, 255));&quot;&gt;IBAN&lt;/span&gt;&lt;br&gt;&lt;span style=&quot;background-color: transparent; color: light-dark(rgb(0, 0, 0), rgb(255, 255, 255));&quot;&gt;Véhicule&lt;/span&gt;&lt;br&gt;&lt;span style=&quot;background-color: transparent; color: light-dark(rgb(0, 0, 0), rgb(255, 255, 255));&quot;&gt;Banni&lt;/span&gt;" style="text;strokeColor=none;fillColor=none;align=left;verticalAlign=middle;spacingLeft=4;spacingRight=4;overflow=hidden;points=[[0,0.5],[1,0.5]];portConstraint=eastwest;rotatable=0;whiteSpace=wrap;html=1;" vertex="1" parent="J4wWDecNCUsRWOMbRsMd-1">
          <mxGeometry y="60" width="140" height="160" as="geometry" />
        </mxCell>
        <mxCell id="J4wWDecNCUsRWOMbRsMd-78" style="edgeStyle=orthogonalEdgeStyle;shape=connector;rounded=0;orthogonalLoop=1;jettySize=auto;html=1;entryX=0.5;entryY=1;entryDx=0;entryDy=0;strokeColor=default;align=center;verticalAlign=middle;fontFamily=Helvetica;fontSize=11;fontColor=default;labelBackgroundColor=default;startFill=0;endArrow=none;" edge="1" parent="1" source="J4wWDecNCUsRWOMbRsMd-5" target="J4wWDecNCUsRWOMbRsMd-73">
          <mxGeometry relative="1" as="geometry" />
        </mxCell>
        <mxCell id="J4wWDecNCUsRWOMbRsMd-79" value="0,n" style="edgeLabel;html=1;align=center;verticalAlign=middle;resizable=0;points=[];fontFamily=Helvetica;fontSize=11;fontColor=default;labelBackgroundColor=default;" vertex="1" connectable="0" parent="J4wWDecNCUsRWOMbRsMd-78">
          <mxGeometry x="-0.8841" y="-1" relative="1" as="geometry">
            <mxPoint as="offset" />
          </mxGeometry>
        </mxCell>
        <mxCell id="J4wWDecNCUsRWOMbRsMd-5" value="&lt;b&gt;Borne&lt;/b&gt;" style="swimlane;fontStyle=0;childLayout=stackLayout;horizontal=1;startSize=30;horizontalStack=0;resizeParent=1;resizeParentMax=0;resizeLast=0;collapsible=1;marginBottom=0;whiteSpace=wrap;html=1;" vertex="1" parent="1">
          <mxGeometry x="571.4300000000001" y="900" width="140" height="240" as="geometry" />
        </mxCell>
        <mxCell id="J4wWDecNCUsRWOMbRsMd-6" value="&lt;b&gt;&lt;u&gt;numBorne&lt;/u&gt;&lt;/b&gt;" style="text;strokeColor=none;fillColor=none;align=left;verticalAlign=middle;spacingLeft=4;spacingRight=4;overflow=hidden;points=[[0,0.5],[1,0.5]];portConstraint=eastwest;rotatable=0;whiteSpace=wrap;html=1;" vertex="1" parent="J4wWDecNCUsRWOMbRsMd-5">
          <mxGeometry y="30" width="140" height="30" as="geometry" />
        </mxCell>
        <mxCell id="J4wWDecNCUsRWOMbRsMd-7" value="&lt;span style=&quot;background-color: transparent; color: light-dark(rgb(0, 0, 0), rgb(255, 255, 255));&quot;&gt;NomBorne&lt;/span&gt;&lt;br&gt;CoordGPS&lt;span style=&quot;white-space: pre;&quot;&gt;&#x9;&lt;/span&gt;&lt;br&gt;&lt;span style=&quot;background-color: transparent; color: light-dark(rgb(0, 0, 0), rgb(255, 255, 255));&quot;&gt;Tarif&lt;/span&gt;&lt;br&gt;&lt;span style=&quot;background-color: transparent; color: light-dark(rgb(0, 0, 0), rgb(255, 255, 255));&quot;&gt;Puissance&lt;/span&gt;&lt;br&gt;&lt;span style=&quot;background-color: transparent; color: light-dark(rgb(0, 0, 0), rgb(255, 255, 255));&quot;&gt;Instruction&lt;/span&gt;&lt;br&gt;&lt;span style=&quot;background-color: transparent; color: light-dark(rgb(0, 0, 0), rgb(255, 255, 255));&quot;&gt;Sur pied&lt;/span&gt;&lt;br&gt;&lt;span style=&quot;background-color: transparent; color: light-dark(rgb(0, 0, 0), rgb(255, 255, 255));&quot;&gt;État&lt;/span&gt;&lt;br&gt;&lt;span style=&quot;background-color: transparent; color: light-dark(rgb(0, 0, 0), rgb(255, 255, 255));&quot;&gt;Occupée&lt;/span&gt;" style="text;strokeColor=none;fillColor=none;align=left;verticalAlign=middle;spacingLeft=4;spacingRight=4;overflow=hidden;points=[[0,0.5],[1,0.5]];portConstraint=eastwest;rotatable=0;whiteSpace=wrap;html=1;" vertex="1" parent="J4wWDecNCUsRWOMbRsMd-5">
          <mxGeometry y="60" width="140" height="180" as="geometry" />
        </mxCell>
        <mxCell id="J4wWDecNCUsRWOMbRsMd-9" value="&lt;b&gt;Lieu&lt;/b&gt;" style="swimlane;fontStyle=0;childLayout=stackLayout;horizontal=1;startSize=30;horizontalStack=0;resizeParent=1;resizeParentMax=0;resizeLast=0;collapsible=1;marginBottom=0;whiteSpace=wrap;html=1;" vertex="1" parent="1">
          <mxGeometry x="571.4300000000001" y="570" width="140" height="90" as="geometry" />
        </mxCell>
        <mxCell id="J4wWDecNCUsRWOMbRsMd-10" value="&lt;b&gt;&lt;u&gt;numLieu&lt;/u&gt;&lt;/b&gt;" style="text;strokeColor=none;fillColor=none;align=left;verticalAlign=middle;spacingLeft=4;spacingRight=4;overflow=hidden;points=[[0,0.5],[1,0.5]];portConstraint=eastwest;rotatable=0;whiteSpace=wrap;html=1;" vertex="1" parent="J4wWDecNCUsRWOMbRsMd-9">
          <mxGeometry y="30" width="140" height="30" as="geometry" />
        </mxCell>
        <mxCell id="J4wWDecNCUsRWOMbRsMd-12" value="Instructions" style="text;strokeColor=none;fillColor=none;align=left;verticalAlign=middle;spacingLeft=4;spacingRight=4;overflow=hidden;points=[[0,0.5],[1,0.5]];portConstraint=eastwest;rotatable=0;whiteSpace=wrap;html=1;" vertex="1" parent="J4wWDecNCUsRWOMbRsMd-9">
          <mxGeometry y="60" width="140" height="30" as="geometry" />
        </mxCell>
        <mxCell id="J4wWDecNCUsRWOMbRsMd-13" value="&lt;b&gt;Adresse&lt;/b&gt;" style="swimlane;fontStyle=0;childLayout=stackLayout;horizontal=1;startSize=30;horizontalStack=0;resizeParent=1;resizeParentMax=0;resizeLast=0;collapsible=1;marginBottom=0;whiteSpace=wrap;html=1;" vertex="1" parent="1">
          <mxGeometry x="360" y="80" width="140" height="200" as="geometry" />
        </mxCell>
        <mxCell id="J4wWDecNCUsRWOMbRsMd-14" value="&lt;b&gt;&lt;u&gt;numAdresse&lt;/u&gt;&lt;/b&gt;" style="text;strokeColor=none;fillColor=none;align=left;verticalAlign=middle;spacingLeft=4;spacingRight=4;overflow=hidden;points=[[0,0.5],[1,0.5]];portConstraint=eastwest;rotatable=0;whiteSpace=wrap;html=1;" vertex="1" parent="J4wWDecNCUsRWOMbRsMd-13">
          <mxGeometry y="30" width="140" height="30" as="geometry" />
        </mxCell>
        <mxCell id="J4wWDecNCUsRWOMbRsMd-15" value="&lt;span style=&quot;background-color: transparent; color: light-dark(rgb(0, 0, 0), rgb(255, 255, 255));&quot;&gt;NomAdresse&lt;br&gt;Numéro et rue&lt;/span&gt;&lt;span style=&quot;background-color: transparent; color: light-dark(rgb(0, 0, 0), rgb(255, 255, 255));&quot;&gt;&lt;br&gt;&lt;/span&gt;&lt;span style=&quot;background-color: transparent; color: light-dark(rgb(0, 0, 0), rgb(255, 255, 255));&quot;&gt;Code Postal&lt;/span&gt;&lt;br&gt;&lt;span style=&quot;background-color: transparent; color: light-dark(rgb(0, 0, 0), rgb(255, 255, 255));&quot;&gt;Ville&lt;/span&gt;&lt;br&gt;&lt;span style=&quot;background-color: transparent; color: light-dark(rgb(0, 0, 0), rgb(255, 255, 255));&quot;&gt;Pays&lt;/span&gt;&lt;br&gt;&lt;span style=&quot;background-color: transparent; color: light-dark(rgb(0, 0, 0), rgb(255, 255, 255));&quot;&gt;Région&lt;/span&gt;&lt;br&gt;&lt;span style=&quot;background-color: transparent; color: light-dark(rgb(0, 0, 0), rgb(255, 255, 255));&quot;&gt;Complément&lt;/span&gt;&lt;br&gt;&lt;span style=&quot;background-color: transparent; color: light-dark(rgb(0, 0, 0), rgb(255, 255, 255));&quot;&gt;Étage&lt;/span&gt;" style="text;strokeColor=none;fillColor=none;align=left;verticalAlign=middle;spacingLeft=4;spacingRight=4;overflow=hidden;points=[[0,0.5],[1,0.5]];portConstraint=eastwest;rotatable=0;whiteSpace=wrap;html=1;" vertex="1" parent="J4wWDecNCUsRWOMbRsMd-13">
          <mxGeometry y="60" width="140" height="140" as="geometry" />
        </mxCell>
        <mxCell id="J4wWDecNCUsRWOMbRsMd-17" value="" style="group" vertex="1" connectable="0" parent="1">
          <mxGeometry x="140" y="140" width="120" height="80" as="geometry" />
        </mxCell>
        <mxCell id="J4wWDecNCUsRWOMbRsMd-18" value="" style="ellipse;whiteSpace=wrap;html=1;" vertex="1" parent="J4wWDecNCUsRWOMbRsMd-17">
          <mxGeometry width="120" height="80" as="geometry" />
        </mxCell>
        <mxCell id="J4wWDecNCUsRWOMbRsMd-19" value="Résider" style="text;html=1;align=center;verticalAlign=middle;whiteSpace=wrap;rounded=0;" vertex="1" parent="J4wWDecNCUsRWOMbRsMd-17">
          <mxGeometry x="30" y="10" width="60" height="30" as="geometry" />
        </mxCell>
        <mxCell id="J4wWDecNCUsRWOMbRsMd-21" value="" style="endArrow=none;html=1;rounded=0;entryX=1;entryY=0.5;entryDx=0;entryDy=0;exitX=0;exitY=0.5;exitDx=0;exitDy=0;" edge="1" parent="J4wWDecNCUsRWOMbRsMd-17" source="J4wWDecNCUsRWOMbRsMd-18" target="J4wWDecNCUsRWOMbRsMd-18">
          <mxGeometry width="50" height="50" relative="1" as="geometry">
            <mxPoint x="100" y="-20" as="sourcePoint" />
            <mxPoint x="150" y="-70" as="targetPoint" />
          </mxGeometry>
        </mxCell>
        <mxCell id="J4wWDecNCUsRWOMbRsMd-22" value="" style="group" vertex="1" connectable="0" parent="1">
          <mxGeometry x="581.4300000000001" y="450" width="120" height="80" as="geometry" />
        </mxCell>
        <mxCell id="J4wWDecNCUsRWOMbRsMd-23" value="" style="ellipse;whiteSpace=wrap;html=1;" vertex="1" parent="J4wWDecNCUsRWOMbRsMd-22">
          <mxGeometry width="120" height="80" as="geometry" />
        </mxCell>
        <mxCell id="J4wWDecNCUsRWOMbRsMd-24" value="Se situer à" style="text;html=1;align=center;verticalAlign=middle;whiteSpace=wrap;rounded=0;" vertex="1" parent="J4wWDecNCUsRWOMbRsMd-22">
          <mxGeometry x="30" y="10" width="60" height="30" as="geometry" />
        </mxCell>
        <mxCell id="J4wWDecNCUsRWOMbRsMd-25" value="" style="endArrow=none;html=1;rounded=0;entryX=1;entryY=0.5;entryDx=0;entryDy=0;exitX=0;exitY=0.5;exitDx=0;exitDy=0;" edge="1" parent="J4wWDecNCUsRWOMbRsMd-22" source="J4wWDecNCUsRWOMbRsMd-23" target="J4wWDecNCUsRWOMbRsMd-23">
          <mxGeometry width="50" height="50" relative="1" as="geometry">
            <mxPoint x="100" y="-20" as="sourcePoint" />
            <mxPoint x="150" y="-70" as="targetPoint" />
          </mxGeometry>
        </mxCell>
        <mxCell id="J4wWDecNCUsRWOMbRsMd-26" style="edgeStyle=orthogonalEdgeStyle;rounded=0;orthogonalLoop=1;jettySize=auto;html=1;exitX=0;exitY=0.5;exitDx=0;exitDy=0;endArrow=none;startFill=0;" edge="1" parent="1" source="J4wWDecNCUsRWOMbRsMd-18" target="J4wWDecNCUsRWOMbRsMd-1">
          <mxGeometry relative="1" as="geometry" />
        </mxCell>
        <mxCell id="J4wWDecNCUsRWOMbRsMd-30" value="1,n" style="edgeLabel;html=1;align=center;verticalAlign=middle;resizable=0;points=[];fontFamily=Helvetica;fontSize=11;fontColor=default;labelBackgroundColor=default;" vertex="1" connectable="0" parent="J4wWDecNCUsRWOMbRsMd-26">
          <mxGeometry x="0.7167" y="-1" relative="1" as="geometry">
            <mxPoint as="offset" />
          </mxGeometry>
        </mxCell>
        <mxCell id="J4wWDecNCUsRWOMbRsMd-27" style="edgeStyle=orthogonalEdgeStyle;rounded=0;orthogonalLoop=1;jettySize=auto;html=1;exitX=1;exitY=0.5;exitDx=0;exitDy=0;endArrow=none;startFill=0;" edge="1" parent="1" source="J4wWDecNCUsRWOMbRsMd-18" target="J4wWDecNCUsRWOMbRsMd-13">
          <mxGeometry relative="1" as="geometry" />
        </mxCell>
        <mxCell id="J4wWDecNCUsRWOMbRsMd-31" value="0,1" style="edgeLabel;html=1;align=center;verticalAlign=middle;resizable=0;points=[];fontFamily=Helvetica;fontSize=11;fontColor=default;labelBackgroundColor=default;" vertex="1" connectable="0" parent="J4wWDecNCUsRWOMbRsMd-27">
          <mxGeometry x="0.6" relative="1" as="geometry">
            <mxPoint as="offset" />
          </mxGeometry>
        </mxCell>
        <mxCell id="J4wWDecNCUsRWOMbRsMd-28" style="edgeStyle=orthogonalEdgeStyle;rounded=0;orthogonalLoop=1;jettySize=auto;html=1;exitX=0.5;exitY=0;exitDx=0;exitDy=0;endArrow=none;startFill=0;" edge="1" parent="1" source="J4wWDecNCUsRWOMbRsMd-23" target="J4wWDecNCUsRWOMbRsMd-13">
          <mxGeometry relative="1" as="geometry" />
        </mxCell>
        <mxCell id="J4wWDecNCUsRWOMbRsMd-33" value="0,1" style="edgeLabel;html=1;align=center;verticalAlign=middle;resizable=0;points=[];fontFamily=Helvetica;fontSize=11;fontColor=default;labelBackgroundColor=default;" vertex="1" connectable="0" parent="J4wWDecNCUsRWOMbRsMd-28">
          <mxGeometry x="0.7" relative="1" as="geometry">
            <mxPoint y="14" as="offset" />
          </mxGeometry>
        </mxCell>
        <mxCell id="J4wWDecNCUsRWOMbRsMd-29" style="edgeStyle=orthogonalEdgeStyle;rounded=0;orthogonalLoop=1;jettySize=auto;html=1;exitX=0.5;exitY=1;exitDx=0;exitDy=0;endArrow=none;startFill=0;" edge="1" parent="1" source="J4wWDecNCUsRWOMbRsMd-23" target="J4wWDecNCUsRWOMbRsMd-9">
          <mxGeometry relative="1" as="geometry" />
        </mxCell>
        <mxCell id="J4wWDecNCUsRWOMbRsMd-32" value="1,1" style="edgeLabel;html=1;align=center;verticalAlign=middle;resizable=0;points=[];fontFamily=Helvetica;fontSize=11;fontColor=default;labelBackgroundColor=default;" vertex="1" connectable="0" parent="J4wWDecNCUsRWOMbRsMd-29">
          <mxGeometry x="0.6071" y="-1" relative="1" as="geometry">
            <mxPoint x="1" y="-12" as="offset" />
          </mxGeometry>
        </mxCell>
        <mxCell id="J4wWDecNCUsRWOMbRsMd-34" value="" style="group;fontFamily=Helvetica;fontSize=11;fontColor=default;labelBackgroundColor=default;" vertex="1" connectable="0" parent="1">
          <mxGeometry x="50" y="380" width="120" height="80" as="geometry" />
        </mxCell>
        <mxCell id="J4wWDecNCUsRWOMbRsMd-35" value="" style="ellipse;whiteSpace=wrap;html=1;fontFamily=Helvetica;fontSize=11;fontColor=default;labelBackgroundColor=default;" vertex="1" parent="J4wWDecNCUsRWOMbRsMd-34">
          <mxGeometry width="120" height="80" as="geometry" />
        </mxCell>
        <mxCell id="J4wWDecNCUsRWOMbRsMd-36" value="Appartenir" style="text;html=1;align=center;verticalAlign=middle;whiteSpace=wrap;rounded=0;fontFamily=Helvetica;fontSize=11;fontColor=default;labelBackgroundColor=default;" vertex="1" parent="J4wWDecNCUsRWOMbRsMd-34">
          <mxGeometry x="30" y="10" width="60" height="30" as="geometry" />
        </mxCell>
        <mxCell id="J4wWDecNCUsRWOMbRsMd-38" value="" style="endArrow=none;html=1;rounded=0;entryX=1;entryY=0.5;entryDx=0;entryDy=0;exitX=0;exitY=0.5;exitDx=0;exitDy=0;strokeColor=default;align=center;verticalAlign=middle;fontFamily=Helvetica;fontSize=11;fontColor=default;labelBackgroundColor=default;edgeStyle=orthogonalEdgeStyle;" edge="1" parent="J4wWDecNCUsRWOMbRsMd-34" source="J4wWDecNCUsRWOMbRsMd-35" target="J4wWDecNCUsRWOMbRsMd-35">
          <mxGeometry width="50" height="50" relative="1" as="geometry">
            <mxPoint x="100" y="-20" as="sourcePoint" />
            <mxPoint x="150" y="-70" as="targetPoint" />
          </mxGeometry>
        </mxCell>
        <mxCell id="J4wWDecNCUsRWOMbRsMd-39" style="edgeStyle=orthogonalEdgeStyle;shape=connector;rounded=0;orthogonalLoop=1;jettySize=auto;html=1;exitX=0;exitY=0.5;exitDx=0;exitDy=0;strokeColor=default;align=center;verticalAlign=middle;fontFamily=Helvetica;fontSize=11;fontColor=default;labelBackgroundColor=default;startFill=0;endArrow=none;" edge="1" parent="1" source="J4wWDecNCUsRWOMbRsMd-35" target="J4wWDecNCUsRWOMbRsMd-1">
          <mxGeometry relative="1" as="geometry" />
        </mxCell>
        <mxCell id="J4wWDecNCUsRWOMbRsMd-45" value="0,n" style="edgeLabel;html=1;align=center;verticalAlign=middle;resizable=0;points=[];fontFamily=Helvetica;fontSize=11;fontColor=default;labelBackgroundColor=default;" vertex="1" connectable="0" parent="J4wWDecNCUsRWOMbRsMd-39">
          <mxGeometry x="0.8768" y="1" relative="1" as="geometry">
            <mxPoint as="offset" />
          </mxGeometry>
        </mxCell>
        <mxCell id="J4wWDecNCUsRWOMbRsMd-40" style="edgeStyle=orthogonalEdgeStyle;shape=connector;rounded=0;orthogonalLoop=1;jettySize=auto;html=1;exitX=1;exitY=0.5;exitDx=0;exitDy=0;strokeColor=default;align=center;verticalAlign=middle;fontFamily=Helvetica;fontSize=11;fontColor=default;labelBackgroundColor=default;startFill=0;endArrow=none;entryX=0;entryY=0.5;entryDx=0;entryDy=0;" edge="1" parent="1" source="J4wWDecNCUsRWOMbRsMd-35" target="J4wWDecNCUsRWOMbRsMd-10">
          <mxGeometry relative="1" as="geometry" />
        </mxCell>
        <mxCell id="J4wWDecNCUsRWOMbRsMd-44" value="1,1" style="edgeLabel;html=1;align=center;verticalAlign=middle;resizable=0;points=[];fontFamily=Helvetica;fontSize=11;fontColor=default;labelBackgroundColor=default;" vertex="1" connectable="0" parent="J4wWDecNCUsRWOMbRsMd-40">
          <mxGeometry x="0.7789" y="-1" relative="1" as="geometry">
            <mxPoint as="offset" />
          </mxGeometry>
        </mxCell>
        <mxCell id="J4wWDecNCUsRWOMbRsMd-46" value="" style="group;fontFamily=Helvetica;fontSize=11;fontColor=default;labelBackgroundColor=default;" vertex="1" connectable="0" parent="1">
          <mxGeometry x="581.4300000000001" y="780" width="120" height="80" as="geometry" />
        </mxCell>
        <mxCell id="J4wWDecNCUsRWOMbRsMd-47" value="" style="ellipse;whiteSpace=wrap;html=1;fontFamily=Helvetica;fontSize=11;fontColor=default;labelBackgroundColor=default;" vertex="1" parent="J4wWDecNCUsRWOMbRsMd-46">
          <mxGeometry width="120" height="80" as="geometry" />
        </mxCell>
        <mxCell id="J4wWDecNCUsRWOMbRsMd-48" value="Contenir" style="text;html=1;align=center;verticalAlign=middle;whiteSpace=wrap;rounded=0;fontFamily=Helvetica;fontSize=11;fontColor=default;labelBackgroundColor=default;" vertex="1" parent="J4wWDecNCUsRWOMbRsMd-46">
          <mxGeometry x="30" y="10" width="60" height="30" as="geometry" />
        </mxCell>
        <mxCell id="J4wWDecNCUsRWOMbRsMd-50" value="" style="endArrow=none;html=1;rounded=0;entryX=1;entryY=0.5;entryDx=0;entryDy=0;exitX=0;exitY=0.5;exitDx=0;exitDy=0;strokeColor=default;align=center;verticalAlign=middle;fontFamily=Helvetica;fontSize=11;fontColor=default;labelBackgroundColor=default;edgeStyle=orthogonalEdgeStyle;" edge="1" parent="J4wWDecNCUsRWOMbRsMd-46" source="J4wWDecNCUsRWOMbRsMd-47" target="J4wWDecNCUsRWOMbRsMd-47">
          <mxGeometry width="50" height="50" relative="1" as="geometry">
            <mxPoint x="100" y="-20" as="sourcePoint" />
            <mxPoint x="150" y="-70" as="targetPoint" />
          </mxGeometry>
        </mxCell>
        <mxCell id="J4wWDecNCUsRWOMbRsMd-53" style="edgeStyle=orthogonalEdgeStyle;shape=connector;rounded=0;orthogonalLoop=1;jettySize=auto;html=1;strokeColor=default;align=center;verticalAlign=middle;fontFamily=Helvetica;fontSize=11;fontColor=default;labelBackgroundColor=default;startFill=0;endArrow=none;" edge="1" parent="1" source="J4wWDecNCUsRWOMbRsMd-47" target="J4wWDecNCUsRWOMbRsMd-9">
          <mxGeometry relative="1" as="geometry" />
        </mxCell>
        <mxCell id="J4wWDecNCUsRWOMbRsMd-55" value="1,n" style="edgeLabel;html=1;align=center;verticalAlign=middle;resizable=0;points=[];fontFamily=Helvetica;fontSize=11;fontColor=default;labelBackgroundColor=default;" vertex="1" connectable="0" parent="J4wWDecNCUsRWOMbRsMd-53">
          <mxGeometry x="0.4357" relative="1" as="geometry">
            <mxPoint as="offset" />
          </mxGeometry>
        </mxCell>
        <mxCell id="J4wWDecNCUsRWOMbRsMd-54" style="edgeStyle=orthogonalEdgeStyle;shape=connector;rounded=0;orthogonalLoop=1;jettySize=auto;html=1;strokeColor=default;align=center;verticalAlign=middle;fontFamily=Helvetica;fontSize=11;fontColor=default;labelBackgroundColor=default;startFill=0;endArrow=none;" edge="1" parent="1" source="J4wWDecNCUsRWOMbRsMd-47" target="J4wWDecNCUsRWOMbRsMd-5">
          <mxGeometry relative="1" as="geometry" />
        </mxCell>
        <mxCell id="J4wWDecNCUsRWOMbRsMd-56" value="1,1" style="edgeLabel;html=1;align=center;verticalAlign=middle;resizable=0;points=[];fontFamily=Helvetica;fontSize=11;fontColor=default;labelBackgroundColor=default;" vertex="1" connectable="0" parent="J4wWDecNCUsRWOMbRsMd-54">
          <mxGeometry x="0.3833" y="-1" relative="1" as="geometry">
            <mxPoint as="offset" />
          </mxGeometry>
        </mxCell>
        <mxCell id="J4wWDecNCUsRWOMbRsMd-57" value="" style="group;fontFamily=Helvetica;fontSize=11;fontColor=default;labelBackgroundColor=default;" vertex="1" connectable="0" parent="1">
          <mxGeometry x="50" y="640" width="170" height="120" as="geometry" />
        </mxCell>
        <mxCell id="J4wWDecNCUsRWOMbRsMd-58" value="" style="ellipse;whiteSpace=wrap;html=1;fontFamily=Helvetica;fontSize=11;fontColor=default;labelBackgroundColor=default;" vertex="1" parent="J4wWDecNCUsRWOMbRsMd-57">
          <mxGeometry width="170" height="120" as="geometry" />
        </mxCell>
        <mxCell id="J4wWDecNCUsRWOMbRsMd-59" value="Réserver" style="text;html=1;align=center;verticalAlign=middle;whiteSpace=wrap;rounded=0;fontFamily=Helvetica;fontSize=11;fontColor=default;labelBackgroundColor=default;" vertex="1" parent="J4wWDecNCUsRWOMbRsMd-57">
          <mxGeometry x="42.5" width="85" height="45" as="geometry" />
        </mxCell>
        <mxCell id="J4wWDecNCUsRWOMbRsMd-60" value="&lt;div&gt;numReservation&lt;/div&gt;dateDebut&lt;div&gt;dateFin&lt;/div&gt;&lt;div&gt;&lt;span style=&quot;background-color: light-dark(#ffffff, var(--ge-dark-color, #121212)); color: light-dark(rgb(0, 0, 0), rgb(255, 255, 255));&quot;&gt;PrixMinuteHisto&lt;/span&gt;&lt;/div&gt;&lt;div&gt;&lt;span style=&quot;color: light-dark(rgb(0, 0, 0), rgb(255, 255, 255)); background-color: light-dark(#ffffff, var(--ge-dark-color, #121212));&quot;&gt;État&lt;/span&gt;&lt;/div&gt;" style="text;html=1;align=center;verticalAlign=middle;whiteSpace=wrap;rounded=0;container=0;fontFamily=Helvetica;fontSize=11;fontColor=default;labelBackgroundColor=default;" vertex="1" parent="J4wWDecNCUsRWOMbRsMd-57">
          <mxGeometry x="42.5" y="45" width="87.5" height="60" as="geometry" />
        </mxCell>
        <mxCell id="J4wWDecNCUsRWOMbRsMd-61" value="" style="endArrow=none;html=1;rounded=0;strokeColor=default;align=center;verticalAlign=middle;fontFamily=Helvetica;fontSize=11;fontColor=default;labelBackgroundColor=default;edgeStyle=orthogonalEdgeStyle;" edge="1" parent="J4wWDecNCUsRWOMbRsMd-57">
          <mxGeometry width="50" height="50" relative="1" as="geometry">
            <mxPoint x="11.333333333333332" y="36" as="sourcePoint" />
            <mxPoint x="160" y="36" as="targetPoint" />
          </mxGeometry>
        </mxCell>
        <mxCell id="J4wWDecNCUsRWOMbRsMd-62" style="edgeStyle=orthogonalEdgeStyle;shape=connector;rounded=0;orthogonalLoop=1;jettySize=auto;html=1;strokeColor=default;align=center;verticalAlign=middle;fontFamily=Helvetica;fontSize=11;fontColor=default;labelBackgroundColor=default;startFill=0;endArrow=none;" edge="1" parent="1" source="J4wWDecNCUsRWOMbRsMd-58" target="J4wWDecNCUsRWOMbRsMd-5">
          <mxGeometry relative="1" as="geometry">
            <mxPoint x="306.8" y="690" as="targetPoint" />
            <Array as="points">
              <mxPoint x="370" y="700" />
              <mxPoint x="370" y="1180" />
            </Array>
          </mxGeometry>
        </mxCell>
        <mxCell id="J4wWDecNCUsRWOMbRsMd-64" value="0,n" style="edgeLabel;html=1;align=center;verticalAlign=middle;resizable=0;points=[];fontFamily=Helvetica;fontSize=11;fontColor=default;labelBackgroundColor=default;" vertex="1" connectable="0" parent="J4wWDecNCUsRWOMbRsMd-62">
          <mxGeometry x="0.7621" y="-2" relative="1" as="geometry">
            <mxPoint as="offset" />
          </mxGeometry>
        </mxCell>
        <mxCell id="J4wWDecNCUsRWOMbRsMd-77" style="edgeStyle=orthogonalEdgeStyle;shape=connector;rounded=0;orthogonalLoop=1;jettySize=auto;html=1;entryX=0.5;entryY=0;entryDx=0;entryDy=0;strokeColor=default;align=center;verticalAlign=middle;fontFamily=Helvetica;fontSize=11;fontColor=default;labelBackgroundColor=default;startFill=0;endArrow=none;" edge="1" parent="1" source="J4wWDecNCUsRWOMbRsMd-68" target="J4wWDecNCUsRWOMbRsMd-73">
          <mxGeometry relative="1" as="geometry" />
        </mxCell>
        <mxCell id="J4wWDecNCUsRWOMbRsMd-80" value="1,1" style="edgeLabel;html=1;align=center;verticalAlign=middle;resizable=0;points=[];fontFamily=Helvetica;fontSize=11;fontColor=default;labelBackgroundColor=default;" vertex="1" connectable="0" parent="J4wWDecNCUsRWOMbRsMd-77">
          <mxGeometry x="-0.8359" relative="1" as="geometry">
            <mxPoint as="offset" />
          </mxGeometry>
        </mxCell>
        <mxCell id="J4wWDecNCUsRWOMbRsMd-68" value="Média" style="swimlane;fontStyle=0;childLayout=stackLayout;horizontal=1;startSize=30;horizontalStack=0;resizeParent=1;resizeParentMax=0;resizeLast=0;collapsible=1;marginBottom=0;whiteSpace=wrap;html=1;fontFamily=Helvetica;fontSize=11;fontColor=default;labelBackgroundColor=default;" vertex="1" parent="1">
          <mxGeometry x="880" y="590" width="140" height="140" as="geometry" />
        </mxCell>
        <mxCell id="J4wWDecNCUsRWOMbRsMd-69" value="&lt;b&gt;&lt;u&gt;numMédia&lt;/u&gt;&lt;/b&gt;" style="text;strokeColor=none;fillColor=none;align=left;verticalAlign=middle;spacingLeft=4;spacingRight=4;overflow=hidden;points=[[0,0.5],[1,0.5]];portConstraint=eastwest;rotatable=0;whiteSpace=wrap;html=1;fontFamily=Helvetica;fontSize=11;fontColor=default;labelBackgroundColor=default;" vertex="1" parent="J4wWDecNCUsRWOMbRsMd-68">
          <mxGeometry y="30" width="140" height="30" as="geometry" />
        </mxCell>
        <mxCell id="J4wWDecNCUsRWOMbRsMd-70" value="&lt;span style=&quot;background-color: light-dark(#ffffff, var(--ge-dark-color, #121212)); color: light-dark(rgb(0, 0, 0), rgb(255, 255, 255));&quot;&gt;URL&lt;/span&gt;&lt;br&gt;&lt;span style=&quot;background-color: light-dark(#ffffff, var(--ge-dark-color, #121212)); color: light-dark(rgb(0, 0, 0), rgb(255, 255, 255));&quot;&gt;Type&lt;/span&gt;&lt;br&gt;&lt;span style=&quot;background-color: light-dark(#ffffff, var(--ge-dark-color, #121212)); color: light-dark(rgb(0, 0, 0), rgb(255, 255, 255));&quot;&gt;nomMedia&lt;/span&gt;&lt;br&gt;&lt;span style=&quot;background-color: light-dark(#ffffff, var(--ge-dark-color, #121212)); color: light-dark(rgb(0, 0, 0), rgb(255, 255, 255));&quot;&gt;Description&lt;/span&gt;&lt;br&gt;&lt;span style=&quot;background-color: light-dark(#ffffff, var(--ge-dark-color, #121212)); color: light-dark(rgb(0, 0, 0), rgb(255, 255, 255));&quot;&gt;Taille&lt;/span&gt;" style="text;strokeColor=none;fillColor=none;align=left;verticalAlign=middle;spacingLeft=4;spacingRight=4;overflow=hidden;points=[[0,0.5],[1,0.5]];portConstraint=eastwest;rotatable=0;whiteSpace=wrap;html=1;fontFamily=Helvetica;fontSize=11;fontColor=default;labelBackgroundColor=default;" vertex="1" parent="J4wWDecNCUsRWOMbRsMd-68">
          <mxGeometry y="60" width="140" height="80" as="geometry" />
        </mxCell>
        <mxCell id="J4wWDecNCUsRWOMbRsMd-72" value="" style="group;fontFamily=Helvetica;fontSize=11;fontColor=default;labelBackgroundColor=default;" vertex="1" connectable="0" parent="1">
          <mxGeometry x="890" y="780" width="120" height="80" as="geometry" />
        </mxCell>
        <mxCell id="J4wWDecNCUsRWOMbRsMd-73" value="" style="ellipse;whiteSpace=wrap;html=1;fontFamily=Helvetica;fontSize=11;fontColor=default;labelBackgroundColor=default;" vertex="1" parent="J4wWDecNCUsRWOMbRsMd-72">
          <mxGeometry width="120" height="80" as="geometry" />
        </mxCell>
        <mxCell id="J4wWDecNCUsRWOMbRsMd-74" value="Illustrer" style="text;html=1;align=center;verticalAlign=middle;whiteSpace=wrap;rounded=0;fontFamily=Helvetica;fontSize=11;fontColor=default;labelBackgroundColor=default;" vertex="1" parent="J4wWDecNCUsRWOMbRsMd-72">
          <mxGeometry x="30" y="10" width="60" height="30" as="geometry" />
        </mxCell>
        <mxCell id="J4wWDecNCUsRWOMbRsMd-76" value="" style="endArrow=none;html=1;rounded=0;entryX=1;entryY=0.5;entryDx=0;entryDy=0;exitX=0;exitY=0.5;exitDx=0;exitDy=0;strokeColor=default;align=center;verticalAlign=middle;fontFamily=Helvetica;fontSize=11;fontColor=default;labelBackgroundColor=default;edgeStyle=orthogonalEdgeStyle;" edge="1" parent="J4wWDecNCUsRWOMbRsMd-72" source="J4wWDecNCUsRWOMbRsMd-73" target="J4wWDecNCUsRWOMbRsMd-73">
          <mxGeometry width="50" height="50" relative="1" as="geometry">
            <mxPoint x="100" y="-20" as="sourcePoint" />
            <mxPoint x="150" y="-70" as="targetPoint" />
          </mxGeometry>
        </mxCell>
      </root>
    </mxGraphModel>
  </diagram>
  <diagram id="kS_0Lp-AVNGGNckIoz5k" name="mld">
    <mxGraphModel dx="1455" dy="367" grid="1" gridSize="10" guides="1" tooltips="1" connect="1" arrows="1" fold="1" page="1" pageScale="1" pageWidth="827" pageHeight="1169" math="0" shadow="0">
      <root>
        <mxCell id="0" />
        <mxCell id="1" parent="0" />
        <mxCell id="07Whs_cdyYUtqtcAr3JT-1" style="edgeStyle=orthogonalEdgeStyle;shape=connector;rounded=0;orthogonalLoop=1;jettySize=auto;html=1;entryX=0;entryY=0.5;entryDx=0;entryDy=0;strokeColor=default;align=center;verticalAlign=middle;fontFamily=Helvetica;fontSize=11;fontColor=default;labelBackgroundColor=default;startFill=0;endArrow=none;" edge="1" parent="1" source="07Whs_cdyYUtqtcAr3JT-3" target="07Whs_cdyYUtqtcAr3JT-66">
          <mxGeometry relative="1" as="geometry">
            <Array as="points">
              <mxPoint x="-180" y="140" />
              <mxPoint x="-180" y="670" />
            </Array>
            <mxPoint x="50" y="700" as="targetPoint" />
          </mxGeometry>
        </mxCell>
        <mxCell id="07Whs_cdyYUtqtcAr3JT-3" value="&lt;b&gt;Utilisateurs&lt;/b&gt;" style="swimlane;fontStyle=0;childLayout=stackLayout;horizontal=1;startSize=30;horizontalStack=0;resizeParent=1;resizeParentMax=0;resizeLast=0;collapsible=1;marginBottom=0;whiteSpace=wrap;html=1;" vertex="1" parent="1">
          <mxGeometry x="-120" y="80" width="140" height="220" as="geometry" />
        </mxCell>
        <mxCell id="07Whs_cdyYUtqtcAr3JT-4" value="&lt;b&gt;&lt;u&gt;id&lt;/u&gt;&lt;/b&gt;" style="text;strokeColor=none;fillColor=none;align=left;verticalAlign=middle;spacingLeft=4;spacingRight=4;overflow=hidden;points=[[0,0.5],[1,0.5]];portConstraint=eastwest;rotatable=0;whiteSpace=wrap;html=1;" vertex="1" parent="07Whs_cdyYUtqtcAr3JT-3">
          <mxGeometry y="30" width="140" height="30" as="geometry" />
        </mxCell>
        <mxCell id="07Whs_cdyYUtqtcAr3JT-5" value="&lt;span style=&quot;background-color: transparent; color: light-dark(rgb(0, 0, 0), rgb(255, 255, 255));&quot;&gt;NomUtilisateur&lt;/span&gt;&lt;br&gt;&lt;span style=&quot;background-color: transparent; color: light-dark(rgb(0, 0, 0), rgb(255, 255, 255));&quot;&gt;Prénom&lt;/span&gt;&lt;br&gt;&lt;span style=&quot;background-color: transparent; color: light-dark(rgb(0, 0, 0), rgb(255, 255, 255));&quot;&gt;Pseudo&lt;/span&gt;&lt;br&gt;&lt;span style=&quot;background-color: transparent; color: light-dark(rgb(0, 0, 0), rgb(255, 255, 255));&quot;&gt;Mot de passe&lt;/span&gt;&lt;br&gt;&lt;span style=&quot;background-color: transparent; color: light-dark(rgb(0, 0, 0), rgb(255, 255, 255));&quot;&gt;Rôle&lt;/span&gt;&lt;br&gt;&lt;span style=&quot;background-color: transparent; color: light-dark(rgb(0, 0, 0), rgb(255, 255, 255));&quot;&gt;Adresse mail&lt;/span&gt;&lt;br&gt;&lt;span style=&quot;background-color: transparent; color: light-dark(rgb(0, 0, 0), rgb(255, 255, 255));&quot;&gt;Date de naissance&lt;/span&gt;&lt;br&gt;&lt;span style=&quot;background-color: transparent; color: light-dark(rgb(0, 0, 0), rgb(255, 255, 255));&quot;&gt;IBAN&lt;/span&gt;&lt;br&gt;&lt;span style=&quot;background-color: transparent; color: light-dark(rgb(0, 0, 0), rgb(255, 255, 255));&quot;&gt;Véhicule&lt;/span&gt;&lt;br&gt;&lt;span style=&quot;background-color: transparent; color: light-dark(rgb(0, 0, 0), rgb(255, 255, 255));&quot;&gt;Banni&lt;/span&gt;" style="text;strokeColor=none;fillColor=none;align=left;verticalAlign=middle;spacingLeft=4;spacingRight=4;overflow=hidden;points=[[0,0.5],[1,0.5]];portConstraint=eastwest;rotatable=0;whiteSpace=wrap;html=1;" vertex="1" parent="07Whs_cdyYUtqtcAr3JT-3">
          <mxGeometry y="60" width="140" height="160" as="geometry" />
        </mxCell>
        <mxCell id="07Whs_cdyYUtqtcAr3JT-8" value="&lt;b&gt;Bornes&lt;/b&gt;" style="swimlane;fontStyle=0;childLayout=stackLayout;horizontal=1;startSize=30;horizontalStack=0;resizeParent=1;resizeParentMax=0;resizeLast=0;collapsible=1;marginBottom=0;whiteSpace=wrap;html=1;" vertex="1" parent="1">
          <mxGeometry x="560.0000000000001" y="375" width="140" height="240" as="geometry" />
        </mxCell>
        <mxCell id="07Whs_cdyYUtqtcAr3JT-9" value="&lt;b&gt;&lt;u&gt;id&lt;/u&gt;&lt;/b&gt;" style="text;strokeColor=none;fillColor=none;align=left;verticalAlign=middle;spacingLeft=4;spacingRight=4;overflow=hidden;points=[[0,0.5],[1,0.5]];portConstraint=eastwest;rotatable=0;whiteSpace=wrap;html=1;" vertex="1" parent="07Whs_cdyYUtqtcAr3JT-8">
          <mxGeometry y="30" width="140" height="30" as="geometry" />
        </mxCell>
        <mxCell id="07Whs_cdyYUtqtcAr3JT-10" value="&lt;span style=&quot;background-color: transparent; color: light-dark(rgb(0, 0, 0), rgb(255, 255, 255));&quot;&gt;NomBorne&lt;/span&gt;&lt;br&gt;CoordGPS&lt;span style=&quot;white-space: pre;&quot;&gt;&#x9;&lt;/span&gt;&lt;br&gt;&lt;span style=&quot;background-color: transparent; color: light-dark(rgb(0, 0, 0), rgb(255, 255, 255));&quot;&gt;Tarif&lt;/span&gt;&lt;br&gt;&lt;span style=&quot;background-color: transparent; color: light-dark(rgb(0, 0, 0), rgb(255, 255, 255));&quot;&gt;Puissance&lt;/span&gt;&lt;br&gt;&lt;span style=&quot;background-color: transparent; color: light-dark(rgb(0, 0, 0), rgb(255, 255, 255));&quot;&gt;Instruction&lt;/span&gt;&lt;br&gt;&lt;span style=&quot;background-color: transparent; color: light-dark(rgb(0, 0, 0), rgb(255, 255, 255));&quot;&gt;Sur pied&lt;/span&gt;&lt;br&gt;&lt;span style=&quot;background-color: transparent; color: light-dark(rgb(0, 0, 0), rgb(255, 255, 255));&quot;&gt;État&lt;/span&gt;&lt;br&gt;&lt;span style=&quot;background-color: transparent; color: light-dark(rgb(0, 0, 0), rgb(255, 255, 255));&quot;&gt;Occupée&lt;/span&gt;&lt;div&gt;&lt;span style=&quot;background-color: transparent; color: light-dark(rgb(0, 0, 0), rgb(255, 255, 255));&quot;&gt;#idLieu&lt;/span&gt;&lt;/div&gt;" style="text;strokeColor=none;fillColor=none;align=left;verticalAlign=middle;spacingLeft=4;spacingRight=4;overflow=hidden;points=[[0,0.5],[1,0.5]];portConstraint=eastwest;rotatable=0;whiteSpace=wrap;html=1;" vertex="1" parent="07Whs_cdyYUtqtcAr3JT-8">
          <mxGeometry y="60" width="140" height="180" as="geometry" />
        </mxCell>
        <mxCell id="07Whs_cdyYUtqtcAr3JT-69" style="edgeStyle=orthogonalEdgeStyle;shape=connector;rounded=0;orthogonalLoop=1;jettySize=auto;html=1;strokeColor=default;align=center;verticalAlign=middle;fontFamily=Helvetica;fontSize=11;fontColor=default;labelBackgroundColor=default;startFill=0;endArrow=none;" edge="1" parent="1" source="07Whs_cdyYUtqtcAr3JT-11" target="07Whs_cdyYUtqtcAr3JT-8">
          <mxGeometry relative="1" as="geometry" />
        </mxCell>
        <mxCell id="07Whs_cdyYUtqtcAr3JT-11" value="&lt;b&gt;Lieux&lt;/b&gt;" style="swimlane;fontStyle=0;childLayout=stackLayout;horizontal=1;startSize=30;horizontalStack=0;resizeParent=1;resizeParentMax=0;resizeLast=0;collapsible=1;marginBottom=0;whiteSpace=wrap;html=1;" vertex="1" parent="1">
          <mxGeometry x="290.00000000000006" y="440" width="140" height="110" as="geometry" />
        </mxCell>
        <mxCell id="07Whs_cdyYUtqtcAr3JT-12" value="&lt;b&gt;&lt;u&gt;id&lt;/u&gt;&lt;/b&gt;" style="text;strokeColor=none;fillColor=none;align=left;verticalAlign=middle;spacingLeft=4;spacingRight=4;overflow=hidden;points=[[0,0.5],[1,0.5]];portConstraint=eastwest;rotatable=0;whiteSpace=wrap;html=1;" vertex="1" parent="07Whs_cdyYUtqtcAr3JT-11">
          <mxGeometry y="30" width="140" height="30" as="geometry" />
        </mxCell>
        <mxCell id="07Whs_cdyYUtqtcAr3JT-13" value="Instructions&lt;div&gt;#idUtilisateur&lt;/div&gt;" style="text;strokeColor=none;fillColor=none;align=left;verticalAlign=middle;spacingLeft=4;spacingRight=4;overflow=hidden;points=[[0,0.5],[1,0.5]];portConstraint=eastwest;rotatable=0;whiteSpace=wrap;html=1;" vertex="1" parent="07Whs_cdyYUtqtcAr3JT-11">
          <mxGeometry y="60" width="140" height="50" as="geometry" />
        </mxCell>
        <mxCell id="07Whs_cdyYUtqtcAr3JT-14" value="&lt;b&gt;Adresses&lt;/b&gt;" style="swimlane;fontStyle=0;childLayout=stackLayout;horizontal=1;startSize=30;horizontalStack=0;resizeParent=1;resizeParentMax=0;resizeLast=0;collapsible=1;marginBottom=0;whiteSpace=wrap;html=1;" vertex="1" parent="1">
          <mxGeometry x="360" y="80" width="140" height="220" as="geometry" />
        </mxCell>
        <mxCell id="07Whs_cdyYUtqtcAr3JT-15" value="&lt;b&gt;&lt;u&gt;id&lt;/u&gt;&lt;/b&gt;" style="text;strokeColor=none;fillColor=none;align=left;verticalAlign=middle;spacingLeft=4;spacingRight=4;overflow=hidden;points=[[0,0.5],[1,0.5]];portConstraint=eastwest;rotatable=0;whiteSpace=wrap;html=1;" vertex="1" parent="07Whs_cdyYUtqtcAr3JT-14">
          <mxGeometry y="30" width="140" height="30" as="geometry" />
        </mxCell>
        <mxCell id="07Whs_cdyYUtqtcAr3JT-16" value="&lt;span style=&quot;background-color: transparent; color: light-dark(rgb(0, 0, 0), rgb(255, 255, 255));&quot;&gt;NomAdresse&lt;br&gt;Numéro et rue&lt;/span&gt;&lt;span style=&quot;background-color: transparent; color: light-dark(rgb(0, 0, 0), rgb(255, 255, 255));&quot;&gt;&lt;br&gt;&lt;/span&gt;&lt;span style=&quot;background-color: transparent; color: light-dark(rgb(0, 0, 0), rgb(255, 255, 255));&quot;&gt;Code Postal&lt;/span&gt;&lt;br&gt;&lt;span style=&quot;background-color: transparent; color: light-dark(rgb(0, 0, 0), rgb(255, 255, 255));&quot;&gt;Ville&lt;/span&gt;&lt;br&gt;&lt;span style=&quot;background-color: transparent; color: light-dark(rgb(0, 0, 0), rgb(255, 255, 255));&quot;&gt;Pays&lt;/span&gt;&lt;br&gt;&lt;span style=&quot;background-color: transparent; color: light-dark(rgb(0, 0, 0), rgb(255, 255, 255));&quot;&gt;Région&lt;/span&gt;&lt;br&gt;&lt;span style=&quot;background-color: transparent; color: light-dark(rgb(0, 0, 0), rgb(255, 255, 255));&quot;&gt;Complément&lt;/span&gt;&lt;br&gt;&lt;span style=&quot;background-color: transparent; color: light-dark(rgb(0, 0, 0), rgb(255, 255, 255));&quot;&gt;Étage&lt;/span&gt;&lt;div&gt;&lt;span style=&quot;background-color: transparent; color: light-dark(rgb(0, 0, 0), rgb(255, 255, 255));&quot;&gt;#idUtilisateur&lt;/span&gt;&lt;/div&gt;&lt;div&gt;&lt;span style=&quot;background-color: transparent; color: light-dark(rgb(0, 0, 0), rgb(255, 255, 255));&quot;&gt;#idLieu&lt;/span&gt;&lt;/div&gt;" style="text;strokeColor=none;fillColor=none;align=left;verticalAlign=middle;spacingLeft=4;spacingRight=4;overflow=hidden;points=[[0,0.5],[1,0.5]];portConstraint=eastwest;rotatable=0;whiteSpace=wrap;html=1;" vertex="1" parent="07Whs_cdyYUtqtcAr3JT-14">
          <mxGeometry y="60" width="140" height="160" as="geometry" />
        </mxCell>
        <mxCell id="07Whs_cdyYUtqtcAr3JT-17" value="" style="group" vertex="1" connectable="0" parent="1">
          <mxGeometry x="140" y="140" width="120" height="80" as="geometry" />
        </mxCell>
        <mxCell id="07Whs_cdyYUtqtcAr3JT-20" value="" style="endArrow=none;html=1;rounded=0;entryX=1;entryY=0.5;entryDx=0;entryDy=0;exitX=0;exitY=0.5;exitDx=0;exitDy=0;" edge="1" parent="07Whs_cdyYUtqtcAr3JT-17">
          <mxGeometry width="50" height="50" relative="1" as="geometry">
            <mxPoint y="40.000000000000114" as="sourcePoint" />
            <mxPoint x="120" y="40.000000000000114" as="targetPoint" />
          </mxGeometry>
        </mxCell>
        <mxCell id="07Whs_cdyYUtqtcAr3JT-25" style="edgeStyle=orthogonalEdgeStyle;rounded=0;orthogonalLoop=1;jettySize=auto;html=1;exitX=0;exitY=0.5;exitDx=0;exitDy=0;endArrow=none;startFill=0;entryX=1;entryY=0.5;entryDx=0;entryDy=0;" edge="1" parent="1" target="07Whs_cdyYUtqtcAr3JT-4">
          <mxGeometry relative="1" as="geometry">
            <mxPoint x="140" y="180.0000000000001" as="sourcePoint" />
          </mxGeometry>
        </mxCell>
        <mxCell id="07Whs_cdyYUtqtcAr3JT-27" style="edgeStyle=orthogonalEdgeStyle;rounded=0;orthogonalLoop=1;jettySize=auto;html=1;exitX=1;exitY=0.5;exitDx=0;exitDy=0;endArrow=none;startFill=0;entryX=0;entryY=0.82;entryDx=0;entryDy=0;entryPerimeter=0;" edge="1" parent="1" target="07Whs_cdyYUtqtcAr3JT-16">
          <mxGeometry relative="1" as="geometry">
            <mxPoint x="260" y="180.0000000000001" as="sourcePoint" />
          </mxGeometry>
        </mxCell>
        <mxCell id="07Whs_cdyYUtqtcAr3JT-29" style="edgeStyle=orthogonalEdgeStyle;rounded=0;orthogonalLoop=1;jettySize=auto;html=1;exitX=0.5;exitY=0;exitDx=0;exitDy=0;endArrow=none;startFill=0;entryX=0.554;entryY=0.998;entryDx=0;entryDy=0;entryPerimeter=0;" edge="1" parent="1" source="07Whs_cdyYUtqtcAr3JT-11" target="07Whs_cdyYUtqtcAr3JT-16">
          <mxGeometry relative="1" as="geometry">
            <mxPoint x="641.4299999999998" y="450" as="sourcePoint" />
          </mxGeometry>
        </mxCell>
        <mxCell id="07Whs_cdyYUtqtcAr3JT-37" style="edgeStyle=orthogonalEdgeStyle;shape=connector;rounded=0;orthogonalLoop=1;jettySize=auto;html=1;strokeColor=default;align=center;verticalAlign=middle;fontFamily=Helvetica;fontSize=11;fontColor=default;labelBackgroundColor=default;startFill=0;endArrow=none;" edge="1" parent="1" source="07Whs_cdyYUtqtcAr3JT-11" target="07Whs_cdyYUtqtcAr3JT-3">
          <mxGeometry relative="1" as="geometry">
            <mxPoint x="50" y="420" as="sourcePoint" />
          </mxGeometry>
        </mxCell>
        <mxCell id="07Whs_cdyYUtqtcAr3JT-54" style="edgeStyle=orthogonalEdgeStyle;shape=connector;rounded=0;orthogonalLoop=1;jettySize=auto;html=1;strokeColor=default;align=center;verticalAlign=middle;fontFamily=Helvetica;fontSize=11;fontColor=default;labelBackgroundColor=default;startFill=0;endArrow=none;exitX=1;exitY=0.5;exitDx=0;exitDy=0;" edge="1" parent="1" source="07Whs_cdyYUtqtcAr3JT-66" target="07Whs_cdyYUtqtcAr3JT-8">
          <mxGeometry relative="1" as="geometry">
            <mxPoint x="306.8" y="690" as="targetPoint" />
            <Array as="points">
              <mxPoint x="190" y="660" />
              <mxPoint x="641" y="660" />
            </Array>
            <mxPoint x="220" y="700" as="sourcePoint" />
          </mxGeometry>
        </mxCell>
        <mxCell id="07Whs_cdyYUtqtcAr3JT-58" value="&lt;b&gt;Médias&lt;/b&gt;" style="swimlane;fontStyle=0;childLayout=stackLayout;horizontal=1;startSize=30;horizontalStack=0;resizeParent=1;resizeParentMax=0;resizeLast=0;collapsible=1;marginBottom=0;whiteSpace=wrap;html=1;fontFamily=Helvetica;fontSize=11;fontColor=default;labelBackgroundColor=default;" vertex="1" parent="1">
          <mxGeometry x="880" y="445" width="140" height="160" as="geometry" />
        </mxCell>
        <mxCell id="07Whs_cdyYUtqtcAr3JT-59" value="&lt;b&gt;&lt;u&gt;id&lt;/u&gt;&lt;/b&gt;" style="text;strokeColor=none;fillColor=none;align=left;verticalAlign=middle;spacingLeft=4;spacingRight=4;overflow=hidden;points=[[0,0.5],[1,0.5]];portConstraint=eastwest;rotatable=0;whiteSpace=wrap;html=1;fontFamily=Helvetica;fontSize=11;fontColor=default;labelBackgroundColor=default;" vertex="1" parent="07Whs_cdyYUtqtcAr3JT-58">
          <mxGeometry y="30" width="140" height="30" as="geometry" />
        </mxCell>
        <mxCell id="07Whs_cdyYUtqtcAr3JT-60" value="&lt;span style=&quot;background-color: light-dark(#ffffff, var(--ge-dark-color, #121212)); color: light-dark(rgb(0, 0, 0), rgb(255, 255, 255));&quot;&gt;URL&lt;/span&gt;&lt;br&gt;&lt;span style=&quot;background-color: light-dark(#ffffff, var(--ge-dark-color, #121212)); color: light-dark(rgb(0, 0, 0), rgb(255, 255, 255));&quot;&gt;Type&lt;/span&gt;&lt;br&gt;&lt;span style=&quot;background-color: light-dark(#ffffff, var(--ge-dark-color, #121212)); color: light-dark(rgb(0, 0, 0), rgb(255, 255, 255));&quot;&gt;nomMedia&lt;/span&gt;&lt;br&gt;&lt;span style=&quot;background-color: light-dark(#ffffff, var(--ge-dark-color, #121212)); color: light-dark(rgb(0, 0, 0), rgb(255, 255, 255));&quot;&gt;Description&lt;/span&gt;&lt;br&gt;&lt;span style=&quot;background-color: light-dark(#ffffff, var(--ge-dark-color, #121212)); color: light-dark(rgb(0, 0, 0), rgb(255, 255, 255));&quot;&gt;Taille&lt;/span&gt;&lt;div&gt;&lt;span style=&quot;background-color: light-dark(#ffffff, var(--ge-dark-color, #121212)); color: light-dark(rgb(0, 0, 0), rgb(255, 255, 255));&quot;&gt;#idBorne&lt;/span&gt;&lt;/div&gt;" style="text;strokeColor=none;fillColor=none;align=left;verticalAlign=middle;spacingLeft=4;spacingRight=4;overflow=hidden;points=[[0,0.5],[1,0.5]];portConstraint=eastwest;rotatable=0;whiteSpace=wrap;html=1;fontFamily=Helvetica;fontSize=11;fontColor=default;labelBackgroundColor=default;" vertex="1" parent="07Whs_cdyYUtqtcAr3JT-58">
          <mxGeometry y="60" width="140" height="100" as="geometry" />
        </mxCell>
        <mxCell id="07Whs_cdyYUtqtcAr3JT-65" value="&lt;b&gt;Réservations&lt;/b&gt;" style="swimlane;fontStyle=0;childLayout=stackLayout;horizontal=1;startSize=30;horizontalStack=0;resizeParent=1;resizeParentMax=0;resizeLast=0;collapsible=1;marginBottom=0;whiteSpace=wrap;html=1;fontFamily=Helvetica;fontSize=11;fontColor=default;labelBackgroundColor=default;" vertex="1" parent="1">
          <mxGeometry x="50" y="585" width="140" height="140" as="geometry" />
        </mxCell>
        <mxCell id="07Whs_cdyYUtqtcAr3JT-66" value="&lt;div style=&quot;&quot;&gt;&lt;b&gt;&lt;u&gt;id&lt;/u&gt;&lt;/b&gt;&lt;/div&gt;&lt;div style=&quot;&quot;&gt;#idUtilisateur&lt;/div&gt;&lt;div style=&quot;&quot;&gt;#idBorne&lt;/div&gt;&lt;span style=&quot;&quot;&gt;dateDebut&lt;/span&gt;&lt;div style=&quot;&quot;&gt;dateFin&lt;/div&gt;&lt;div style=&quot;&quot;&gt;&lt;span style=&quot;background-color: light-dark(#ffffff, var(--ge-dark-color, #121212)); color: light-dark(rgb(0, 0, 0), rgb(255, 255, 255));&quot;&gt;PrixMinuteHisto&lt;/span&gt;&lt;/div&gt;&lt;div style=&quot;&quot;&gt;&lt;span style=&quot;color: light-dark(rgb(0, 0, 0), rgb(255, 255, 255)); background-color: light-dark(#ffffff, var(--ge-dark-color, #121212));&quot;&gt;État&lt;/span&gt;&lt;/div&gt;" style="text;strokeColor=none;fillColor=none;align=left;verticalAlign=middle;spacingLeft=4;spacingRight=4;overflow=hidden;points=[[0,0.5],[1,0.5]];portConstraint=eastwest;rotatable=0;whiteSpace=wrap;html=1;fontFamily=Helvetica;fontSize=11;fontColor=default;labelBackgroundColor=default;" vertex="1" parent="07Whs_cdyYUtqtcAr3JT-65">
          <mxGeometry y="30" width="140" height="110" as="geometry" />
        </mxCell>
        <mxCell id="07Whs_cdyYUtqtcAr3JT-70" style="edgeStyle=orthogonalEdgeStyle;shape=connector;rounded=0;orthogonalLoop=1;jettySize=auto;html=1;strokeColor=default;align=center;verticalAlign=middle;fontFamily=Helvetica;fontSize=11;fontColor=default;labelBackgroundColor=default;startFill=0;endArrow=none;" edge="1" parent="1" source="07Whs_cdyYUtqtcAr3JT-10" target="07Whs_cdyYUtqtcAr3JT-58">
          <mxGeometry relative="1" as="geometry" />
        </mxCell>
      </root>
    </mxGraphModel>
  </diagram>
  <diagram id="8x0xeS5CPwqoZOindO4s" name="mpd">
    <mxGraphModel dx="1191" dy="824" grid="1" gridSize="10" guides="1" tooltips="1" connect="1" arrows="1" fold="1" page="1" pageScale="1" pageWidth="827" pageHeight="1169" math="0" shadow="0">
      <root>
        <mxCell id="0" />
        <mxCell id="1" parent="0" />
        <mxCell id="cPA8SC4JnEaQf9zy2ocj-1" style="edgeStyle=orthogonalEdgeStyle;shape=connector;rounded=0;orthogonalLoop=1;jettySize=auto;html=1;entryX=0;entryY=0.5;entryDx=0;entryDy=0;strokeColor=default;align=center;verticalAlign=middle;fontFamily=Helvetica;fontSize=11;fontColor=default;labelBackgroundColor=default;startFill=0;endArrow=none;" parent="1" source="cPA8SC4JnEaQf9zy2ocj-2" target="cPA8SC4JnEaQf9zy2ocj-26" edge="1">
          <mxGeometry relative="1" as="geometry">
            <Array as="points">
              <mxPoint x="-180" y="140" />
              <mxPoint x="-180" y="670" />
            </Array>
            <mxPoint x="50" y="700" as="targetPoint" />
          </mxGeometry>
        </mxCell>
        <mxCell id="cPA8SC4JnEaQf9zy2ocj-2" value="&lt;b&gt;Utilisateurs&lt;/b&gt;" style="swimlane;fontStyle=0;childLayout=stackLayout;horizontal=1;startSize=30;horizontalStack=0;resizeParent=1;resizeParentMax=0;resizeLast=0;collapsible=1;marginBottom=0;whiteSpace=wrap;html=1;" parent="1" vertex="1">
          <mxGeometry x="-120" y="80" width="140" height="220" as="geometry" />
        </mxCell>
        <mxCell id="cPA8SC4JnEaQf9zy2ocj-3" value="&lt;b&gt;&lt;u&gt;id&lt;/u&gt;&lt;/b&gt;" style="text;strokeColor=none;fillColor=none;align=left;verticalAlign=middle;spacingLeft=4;spacingRight=4;overflow=hidden;points=[[0,0.5],[1,0.5]];portConstraint=eastwest;rotatable=0;whiteSpace=wrap;html=1;" parent="cPA8SC4JnEaQf9zy2ocj-2" vertex="1">
          <mxGeometry y="30" width="140" height="30" as="geometry" />
        </mxCell>
        <mxCell id="cPA8SC4JnEaQf9zy2ocj-4" value="&lt;span style=&quot;background-color: transparent; color: light-dark(rgb(0, 0, 0), rgb(255, 255, 255));&quot;&gt;NomUtilisateur&lt;/span&gt;&lt;br&gt;&lt;span style=&quot;background-color: transparent; color: light-dark(rgb(0, 0, 0), rgb(255, 255, 255));&quot;&gt;Prénom&lt;/span&gt;&lt;br&gt;&lt;span style=&quot;background-color: transparent; color: light-dark(rgb(0, 0, 0), rgb(255, 255, 255));&quot;&gt;Pseudo&lt;/span&gt;&lt;br&gt;&lt;span style=&quot;background-color: transparent; color: light-dark(rgb(0, 0, 0), rgb(255, 255, 255));&quot;&gt;Mot de passe&lt;/span&gt;&lt;br&gt;&lt;span style=&quot;background-color: transparent; color: light-dark(rgb(0, 0, 0), rgb(255, 255, 255));&quot;&gt;Rôle&lt;span style=&quot;white-space: pre;&quot;&gt;&#x9;&lt;/span&gt;&lt;span style=&quot;white-space: pre;&quot;&gt;&#x9;&lt;span style=&quot;white-space: pre;&quot;&gt;&#x9;&lt;/span&gt;&lt;/span&gt;ENUM&lt;/span&gt;&lt;br&gt;&lt;span style=&quot;background-color: transparent; color: light-dark(rgb(0, 0, 0), rgb(255, 255, 255));&quot;&gt;Adresse mail&lt;/span&gt;&lt;br&gt;&lt;span style=&quot;background-color: transparent; color: light-dark(rgb(0, 0, 0), rgb(255, 255, 255));&quot;&gt;Date de naissance&lt;/span&gt;&lt;br&gt;&lt;span style=&quot;background-color: transparent; color: light-dark(rgb(0, 0, 0), rgb(255, 255, 255));&quot;&gt;IBAN&lt;/span&gt;&lt;br&gt;&lt;span style=&quot;background-color: transparent; color: light-dark(rgb(0, 0, 0), rgb(255, 255, 255));&quot;&gt;Véhicule&lt;/span&gt;&lt;br&gt;&lt;span style=&quot;background-color: transparent; color: light-dark(rgb(0, 0, 0), rgb(255, 255, 255));&quot;&gt;Banni&lt;/span&gt;" style="text;strokeColor=none;fillColor=none;align=left;verticalAlign=middle;spacingLeft=4;spacingRight=4;overflow=hidden;points=[[0,0.5],[1,0.5]];portConstraint=eastwest;rotatable=0;whiteSpace=wrap;html=1;" parent="cPA8SC4JnEaQf9zy2ocj-2" vertex="1">
          <mxGeometry y="60" width="140" height="160" as="geometry" />
        </mxCell>
        <mxCell id="cPA8SC4JnEaQf9zy2ocj-5" value="&lt;b&gt;Bornes&lt;/b&gt;" style="swimlane;fontStyle=0;childLayout=stackLayout;horizontal=1;startSize=30;horizontalStack=0;resizeParent=1;resizeParentMax=0;resizeLast=0;collapsible=1;marginBottom=0;whiteSpace=wrap;html=1;" parent="1" vertex="1">
          <mxGeometry x="560.0000000000001" y="375" width="140" height="240" as="geometry" />
        </mxCell>
        <mxCell id="cPA8SC4JnEaQf9zy2ocj-6" value="&lt;b&gt;&lt;u&gt;id&lt;/u&gt;&lt;/b&gt;" style="text;strokeColor=none;fillColor=none;align=left;verticalAlign=middle;spacingLeft=4;spacingRight=4;overflow=hidden;points=[[0,0.5],[1,0.5]];portConstraint=eastwest;rotatable=0;whiteSpace=wrap;html=1;" parent="cPA8SC4JnEaQf9zy2ocj-5" vertex="1">
          <mxGeometry y="30" width="140" height="30" as="geometry" />
        </mxCell>
        <mxCell id="cPA8SC4JnEaQf9zy2ocj-7" value="&lt;span style=&quot;background-color: transparent; color: light-dark(rgb(0, 0, 0), rgb(255, 255, 255));&quot;&gt;NomBorne&lt;/span&gt;&lt;br&gt;CoordGPS&lt;span style=&quot;white-space: pre;&quot;&gt;&#x9;Point&lt;/span&gt;&lt;br&gt;&lt;span style=&quot;background-color: transparent; color: light-dark(rgb(0, 0, 0), rgb(255, 255, 255));&quot;&gt;Tarif&lt;/span&gt;&lt;br&gt;&lt;span style=&quot;background-color: transparent; color: light-dark(rgb(0, 0, 0), rgb(255, 255, 255));&quot;&gt;Puissance&lt;/span&gt;&lt;br&gt;&lt;span style=&quot;background-color: transparent; color: light-dark(rgb(0, 0, 0), rgb(255, 255, 255));&quot;&gt;Instruction&lt;/span&gt;&lt;br&gt;&lt;span style=&quot;background-color: transparent; color: light-dark(rgb(0, 0, 0), rgb(255, 255, 255));&quot;&gt;Sur pied&lt;/span&gt;&lt;br&gt;&lt;span style=&quot;background-color: transparent; color: light-dark(rgb(0, 0, 0), rgb(255, 255, 255));&quot;&gt;État&lt;/span&gt;&lt;br&gt;&lt;span style=&quot;background-color: transparent; color: light-dark(rgb(0, 0, 0), rgb(255, 255, 255));&quot;&gt;Occupée&lt;/span&gt;&lt;div&gt;&lt;span style=&quot;background-color: transparent; color: light-dark(rgb(0, 0, 0), rgb(255, 255, 255));&quot;&gt;#idLieu&lt;/span&gt;&lt;/div&gt;" style="text;strokeColor=none;fillColor=none;align=left;verticalAlign=middle;spacingLeft=4;spacingRight=4;overflow=hidden;points=[[0,0.5],[1,0.5]];portConstraint=eastwest;rotatable=0;whiteSpace=wrap;html=1;" parent="cPA8SC4JnEaQf9zy2ocj-5" vertex="1">
          <mxGeometry y="60" width="140" height="180" as="geometry" />
        </mxCell>
        <mxCell id="cPA8SC4JnEaQf9zy2ocj-8" style="edgeStyle=orthogonalEdgeStyle;shape=connector;rounded=0;orthogonalLoop=1;jettySize=auto;html=1;strokeColor=default;align=center;verticalAlign=middle;fontFamily=Helvetica;fontSize=11;fontColor=default;labelBackgroundColor=default;startFill=0;endArrow=none;" parent="1" source="cPA8SC4JnEaQf9zy2ocj-9" target="cPA8SC4JnEaQf9zy2ocj-5" edge="1">
          <mxGeometry relative="1" as="geometry" />
        </mxCell>
        <mxCell id="cPA8SC4JnEaQf9zy2ocj-9" value="&lt;b&gt;Lieux&lt;/b&gt;" style="swimlane;fontStyle=0;childLayout=stackLayout;horizontal=1;startSize=30;horizontalStack=0;resizeParent=1;resizeParentMax=0;resizeLast=0;collapsible=1;marginBottom=0;whiteSpace=wrap;html=1;" parent="1" vertex="1">
          <mxGeometry x="290.00000000000006" y="440" width="140" height="110" as="geometry" />
        </mxCell>
        <mxCell id="cPA8SC4JnEaQf9zy2ocj-10" value="&lt;b&gt;&lt;u&gt;id&lt;/u&gt;&lt;/b&gt;" style="text;strokeColor=none;fillColor=none;align=left;verticalAlign=middle;spacingLeft=4;spacingRight=4;overflow=hidden;points=[[0,0.5],[1,0.5]];portConstraint=eastwest;rotatable=0;whiteSpace=wrap;html=1;" parent="cPA8SC4JnEaQf9zy2ocj-9" vertex="1">
          <mxGeometry y="30" width="140" height="30" as="geometry" />
        </mxCell>
        <mxCell id="cPA8SC4JnEaQf9zy2ocj-11" value="Instructions&lt;div&gt;#idUtilisateur&lt;/div&gt;" style="text;strokeColor=none;fillColor=none;align=left;verticalAlign=middle;spacingLeft=4;spacingRight=4;overflow=hidden;points=[[0,0.5],[1,0.5]];portConstraint=eastwest;rotatable=0;whiteSpace=wrap;html=1;" parent="cPA8SC4JnEaQf9zy2ocj-9" vertex="1">
          <mxGeometry y="60" width="140" height="50" as="geometry" />
        </mxCell>
        <mxCell id="cPA8SC4JnEaQf9zy2ocj-12" value="&lt;b&gt;Adresses&lt;/b&gt;" style="swimlane;fontStyle=0;childLayout=stackLayout;horizontal=1;startSize=30;horizontalStack=0;resizeParent=1;resizeParentMax=0;resizeLast=0;collapsible=1;marginBottom=0;whiteSpace=wrap;html=1;" parent="1" vertex="1">
          <mxGeometry x="360" y="80" width="140" height="220" as="geometry" />
        </mxCell>
        <mxCell id="cPA8SC4JnEaQf9zy2ocj-13" value="&lt;b&gt;&lt;u&gt;id&lt;/u&gt;&lt;/b&gt;" style="text;strokeColor=none;fillColor=none;align=left;verticalAlign=middle;spacingLeft=4;spacingRight=4;overflow=hidden;points=[[0,0.5],[1,0.5]];portConstraint=eastwest;rotatable=0;whiteSpace=wrap;html=1;" parent="cPA8SC4JnEaQf9zy2ocj-12" vertex="1">
          <mxGeometry y="30" width="140" height="30" as="geometry" />
        </mxCell>
        <mxCell id="cPA8SC4JnEaQf9zy2ocj-14" value="&lt;span style=&quot;background-color: transparent; color: light-dark(rgb(0, 0, 0), rgb(255, 255, 255));&quot;&gt;NomAdresse&lt;br&gt;Numéro et rue&lt;/span&gt;&lt;span style=&quot;background-color: transparent; color: light-dark(rgb(0, 0, 0), rgb(255, 255, 255));&quot;&gt;&lt;br&gt;&lt;/span&gt;&lt;span style=&quot;background-color: transparent; color: light-dark(rgb(0, 0, 0), rgb(255, 255, 255));&quot;&gt;Code Postal&lt;/span&gt;&lt;br&gt;&lt;span style=&quot;background-color: transparent; color: light-dark(rgb(0, 0, 0), rgb(255, 255, 255));&quot;&gt;Ville&lt;/span&gt;&lt;br&gt;&lt;span style=&quot;background-color: transparent; color: light-dark(rgb(0, 0, 0), rgb(255, 255, 255));&quot;&gt;Pays&lt;/span&gt;&lt;br&gt;&lt;span style=&quot;background-color: transparent; color: light-dark(rgb(0, 0, 0), rgb(255, 255, 255));&quot;&gt;Région&lt;/span&gt;&lt;br&gt;&lt;span style=&quot;background-color: transparent; color: light-dark(rgb(0, 0, 0), rgb(255, 255, 255));&quot;&gt;Complément&lt;/span&gt;&lt;br&gt;&lt;span style=&quot;background-color: transparent; color: light-dark(rgb(0, 0, 0), rgb(255, 255, 255));&quot;&gt;Étage&lt;/span&gt;&lt;div&gt;&lt;span style=&quot;background-color: transparent; color: light-dark(rgb(0, 0, 0), rgb(255, 255, 255));&quot;&gt;#idUtilisateur&lt;/span&gt;&lt;/div&gt;&lt;div&gt;&lt;span style=&quot;background-color: transparent; color: light-dark(rgb(0, 0, 0), rgb(255, 255, 255));&quot;&gt;#idLieu&lt;/span&gt;&lt;/div&gt;" style="text;strokeColor=none;fillColor=none;align=left;verticalAlign=middle;spacingLeft=4;spacingRight=4;overflow=hidden;points=[[0,0.5],[1,0.5]];portConstraint=eastwest;rotatable=0;whiteSpace=wrap;html=1;" parent="cPA8SC4JnEaQf9zy2ocj-12" vertex="1">
          <mxGeometry y="60" width="140" height="160" as="geometry" />
        </mxCell>
        <mxCell id="cPA8SC4JnEaQf9zy2ocj-15" value="" style="group" parent="1" vertex="1" connectable="0">
          <mxGeometry x="140" y="140" width="120" height="80" as="geometry" />
        </mxCell>
        <mxCell id="cPA8SC4JnEaQf9zy2ocj-16" value="" style="endArrow=none;html=1;rounded=0;entryX=1;entryY=0.5;entryDx=0;entryDy=0;exitX=0;exitY=0.5;exitDx=0;exitDy=0;" parent="cPA8SC4JnEaQf9zy2ocj-15" edge="1">
          <mxGeometry width="50" height="50" relative="1" as="geometry">
            <mxPoint y="40.000000000000114" as="sourcePoint" />
            <mxPoint x="120" y="40.000000000000114" as="targetPoint" />
          </mxGeometry>
        </mxCell>
        <mxCell id="cPA8SC4JnEaQf9zy2ocj-17" style="edgeStyle=orthogonalEdgeStyle;rounded=0;orthogonalLoop=1;jettySize=auto;html=1;exitX=0;exitY=0.5;exitDx=0;exitDy=0;endArrow=none;startFill=0;entryX=1;entryY=0.5;entryDx=0;entryDy=0;" parent="1" target="cPA8SC4JnEaQf9zy2ocj-3" edge="1">
          <mxGeometry relative="1" as="geometry">
            <mxPoint x="140" y="180.0000000000001" as="sourcePoint" />
          </mxGeometry>
        </mxCell>
        <mxCell id="cPA8SC4JnEaQf9zy2ocj-18" style="edgeStyle=orthogonalEdgeStyle;rounded=0;orthogonalLoop=1;jettySize=auto;html=1;exitX=1;exitY=0.5;exitDx=0;exitDy=0;endArrow=none;startFill=0;entryX=0;entryY=0.82;entryDx=0;entryDy=0;entryPerimeter=0;" parent="1" target="cPA8SC4JnEaQf9zy2ocj-14" edge="1">
          <mxGeometry relative="1" as="geometry">
            <mxPoint x="260" y="180.0000000000001" as="sourcePoint" />
          </mxGeometry>
        </mxCell>
        <mxCell id="cPA8SC4JnEaQf9zy2ocj-19" style="edgeStyle=orthogonalEdgeStyle;rounded=0;orthogonalLoop=1;jettySize=auto;html=1;exitX=0.5;exitY=0;exitDx=0;exitDy=0;endArrow=none;startFill=0;entryX=0.554;entryY=0.998;entryDx=0;entryDy=0;entryPerimeter=0;" parent="1" source="cPA8SC4JnEaQf9zy2ocj-9" target="cPA8SC4JnEaQf9zy2ocj-14" edge="1">
          <mxGeometry relative="1" as="geometry">
            <mxPoint x="641.4299999999998" y="450" as="sourcePoint" />
          </mxGeometry>
        </mxCell>
        <mxCell id="cPA8SC4JnEaQf9zy2ocj-20" style="edgeStyle=orthogonalEdgeStyle;shape=connector;rounded=0;orthogonalLoop=1;jettySize=auto;html=1;strokeColor=default;align=center;verticalAlign=middle;fontFamily=Helvetica;fontSize=11;fontColor=default;labelBackgroundColor=default;startFill=0;endArrow=none;" parent="1" source="cPA8SC4JnEaQf9zy2ocj-9" target="cPA8SC4JnEaQf9zy2ocj-2" edge="1">
          <mxGeometry relative="1" as="geometry">
            <mxPoint x="50" y="420" as="sourcePoint" />
          </mxGeometry>
        </mxCell>
        <mxCell id="cPA8SC4JnEaQf9zy2ocj-21" style="edgeStyle=orthogonalEdgeStyle;shape=connector;rounded=0;orthogonalLoop=1;jettySize=auto;html=1;strokeColor=default;align=center;verticalAlign=middle;fontFamily=Helvetica;fontSize=11;fontColor=default;labelBackgroundColor=default;startFill=0;endArrow=none;exitX=1;exitY=0.5;exitDx=0;exitDy=0;" parent="1" source="cPA8SC4JnEaQf9zy2ocj-26" target="cPA8SC4JnEaQf9zy2ocj-5" edge="1">
          <mxGeometry relative="1" as="geometry">
            <mxPoint x="306.8" y="690" as="targetPoint" />
            <Array as="points">
              <mxPoint x="190" y="660" />
              <mxPoint x="641" y="660" />
            </Array>
            <mxPoint x="220" y="700" as="sourcePoint" />
          </mxGeometry>
        </mxCell>
        <mxCell id="cPA8SC4JnEaQf9zy2ocj-22" value="&lt;b&gt;Médias&lt;/b&gt;" style="swimlane;fontStyle=0;childLayout=stackLayout;horizontal=1;startSize=30;horizontalStack=0;resizeParent=1;resizeParentMax=0;resizeLast=0;collapsible=1;marginBottom=0;whiteSpace=wrap;html=1;fontFamily=Helvetica;fontSize=11;fontColor=default;labelBackgroundColor=default;" parent="1" vertex="1">
          <mxGeometry x="880" y="445" width="140" height="160" as="geometry" />
        </mxCell>
        <mxCell id="cPA8SC4JnEaQf9zy2ocj-23" value="&lt;b&gt;&lt;u&gt;id&lt;/u&gt;&lt;/b&gt;" style="text;strokeColor=none;fillColor=none;align=left;verticalAlign=middle;spacingLeft=4;spacingRight=4;overflow=hidden;points=[[0,0.5],[1,0.5]];portConstraint=eastwest;rotatable=0;whiteSpace=wrap;html=1;fontFamily=Helvetica;fontSize=11;fontColor=default;labelBackgroundColor=default;" parent="cPA8SC4JnEaQf9zy2ocj-22" vertex="1">
          <mxGeometry y="30" width="140" height="30" as="geometry" />
        </mxCell>
        <mxCell id="cPA8SC4JnEaQf9zy2ocj-24" value="&lt;span style=&quot;background-color: light-dark(#ffffff, var(--ge-dark-color, #121212)); color: light-dark(rgb(0, 0, 0), rgb(255, 255, 255));&quot;&gt;URL&lt;/span&gt;&lt;br&gt;&lt;span style=&quot;background-color: light-dark(#ffffff, var(--ge-dark-color, #121212)); color: light-dark(rgb(0, 0, 0), rgb(255, 255, 255));&quot;&gt;Type&lt;/span&gt;&lt;br&gt;&lt;span style=&quot;background-color: light-dark(#ffffff, var(--ge-dark-color, #121212)); color: light-dark(rgb(0, 0, 0), rgb(255, 255, 255));&quot;&gt;nomMedia&lt;/span&gt;&lt;br&gt;&lt;span style=&quot;background-color: light-dark(#ffffff, var(--ge-dark-color, #121212)); color: light-dark(rgb(0, 0, 0), rgb(255, 255, 255));&quot;&gt;Description&lt;/span&gt;&lt;br&gt;&lt;span style=&quot;background-color: light-dark(#ffffff, var(--ge-dark-color, #121212)); color: light-dark(rgb(0, 0, 0), rgb(255, 255, 255));&quot;&gt;Taille&lt;/span&gt;&lt;div&gt;&lt;span style=&quot;background-color: light-dark(#ffffff, var(--ge-dark-color, #121212)); color: light-dark(rgb(0, 0, 0), rgb(255, 255, 255));&quot;&gt;#idBorne&lt;/span&gt;&lt;/div&gt;" style="text;strokeColor=none;fillColor=none;align=left;verticalAlign=middle;spacingLeft=4;spacingRight=4;overflow=hidden;points=[[0,0.5],[1,0.5]];portConstraint=eastwest;rotatable=0;whiteSpace=wrap;html=1;fontFamily=Helvetica;fontSize=11;fontColor=default;labelBackgroundColor=default;" parent="cPA8SC4JnEaQf9zy2ocj-22" vertex="1">
          <mxGeometry y="60" width="140" height="100" as="geometry" />
        </mxCell>
        <mxCell id="cPA8SC4JnEaQf9zy2ocj-25" value="&lt;b&gt;Réservations&lt;/b&gt;" style="swimlane;fontStyle=0;childLayout=stackLayout;horizontal=1;startSize=30;horizontalStack=0;resizeParent=1;resizeParentMax=0;resizeLast=0;collapsible=1;marginBottom=0;whiteSpace=wrap;html=1;fontFamily=Helvetica;fontSize=11;fontColor=default;labelBackgroundColor=default;" parent="1" vertex="1">
          <mxGeometry x="50" y="585" width="140" height="140" as="geometry" />
        </mxCell>
        <mxCell id="cPA8SC4JnEaQf9zy2ocj-26" value="&lt;div style=&quot;&quot;&gt;&lt;b&gt;&lt;u&gt;id&lt;/u&gt;&lt;/b&gt;&lt;/div&gt;&lt;div style=&quot;&quot;&gt;#idUtilisateur&lt;/div&gt;&lt;div style=&quot;&quot;&gt;#idBorne&lt;/div&gt;&lt;span style=&quot;&quot;&gt;dateDebut&lt;/span&gt;&lt;div style=&quot;&quot;&gt;dateFin&lt;/div&gt;&lt;div style=&quot;&quot;&gt;&lt;span style=&quot;background-color: light-dark(#ffffff, var(--ge-dark-color, #121212)); color: light-dark(rgb(0, 0, 0), rgb(255, 255, 255));&quot;&gt;PrixMinuteHisto&amp;nbsp; &amp;nbsp;&lt;/span&gt;&lt;span style=&quot;background-color: rgb(251, 251, 251); font-size: 12px; color: light-dark(rgb(0, 0, 0), rgb(255, 255, 255));&quot;&gt;Decimal&lt;/span&gt;&lt;/div&gt;&lt;div style=&quot;&quot;&gt;&lt;span style=&quot;color: light-dark(rgb(0, 0, 0), rgb(255, 255, 255)); background-color: light-dark(#ffffff, var(--ge-dark-color, #121212));&quot;&gt;État&lt;/span&gt;&lt;/div&gt;" style="text;strokeColor=none;fillColor=none;align=left;verticalAlign=middle;spacingLeft=4;spacingRight=4;overflow=hidden;points=[[0,0.5],[1,0.5]];portConstraint=eastwest;rotatable=0;whiteSpace=wrap;html=1;fontFamily=Helvetica;fontSize=11;fontColor=default;labelBackgroundColor=default;" parent="cPA8SC4JnEaQf9zy2ocj-25" vertex="1">
          <mxGeometry y="30" width="140" height="110" as="geometry" />
        </mxCell>
        <mxCell id="cPA8SC4JnEaQf9zy2ocj-27" style="edgeStyle=orthogonalEdgeStyle;shape=connector;rounded=0;orthogonalLoop=1;jettySize=auto;html=1;strokeColor=default;align=center;verticalAlign=middle;fontFamily=Helvetica;fontSize=11;fontColor=default;labelBackgroundColor=default;startFill=0;endArrow=none;" parent="1" source="cPA8SC4JnEaQf9zy2ocj-7" target="cPA8SC4JnEaQf9zy2ocj-22" edge="1">
          <mxGeometry relative="1" as="geometry" />
        </mxCell>
        <mxCell id="nyAgbq_b4wX1nhDC1gHV-1" value="" style="group" vertex="1" connectable="0" parent="1">
          <mxGeometry x="-80" y="350" width="120" height="80" as="geometry" />
        </mxCell>
        <mxCell id="nyAgbq_b4wX1nhDC1gHV-2" value="" style="ellipse;whiteSpace=wrap;html=1;" vertex="1" parent="nyAgbq_b4wX1nhDC1gHV-1">
          <mxGeometry width="120" height="80" as="geometry" />
        </mxCell>
        <mxCell id="nyAgbq_b4wX1nhDC1gHV-3" value="Association" style="text;html=1;align=center;verticalAlign=middle;whiteSpace=wrap;rounded=0;" vertex="1" parent="nyAgbq_b4wX1nhDC1gHV-1">
          <mxGeometry x="30" y="10" width="60" height="30" as="geometry" />
        </mxCell>
        <mxCell id="nyAgbq_b4wX1nhDC1gHV-4" value="attributs" style="text;html=1;align=center;verticalAlign=middle;whiteSpace=wrap;rounded=0;container=0;" vertex="1" parent="nyAgbq_b4wX1nhDC1gHV-1">
          <mxGeometry x="30" y="40" width="60" height="30" as="geometry" />
        </mxCell>
        <mxCell id="nyAgbq_b4wX1nhDC1gHV-5" value="" style="endArrow=none;html=1;rounded=0;entryX=1;entryY=0.5;entryDx=0;entryDy=0;exitX=0;exitY=0.5;exitDx=0;exitDy=0;" edge="1" parent="nyAgbq_b4wX1nhDC1gHV-1" source="nyAgbq_b4wX1nhDC1gHV-2" target="nyAgbq_b4wX1nhDC1gHV-2">
          <mxGeometry width="50" height="50" relative="1" as="geometry">
            <mxPoint x="100" y="-20" as="sourcePoint" />
            <mxPoint x="150" y="-70" as="targetPoint" />
          </mxGeometry>
        </mxCell>
      </root>
    </mxGraphModel>
  </diagram>
</mxfile>
